<svg xmlns="http://www.w3.org/2000/svg" xmlns:xlink="http://www.w3.org/1999/xlink" width="512" zoomAndPan="magnify" viewBox="0 0 384 249.749984" height="333" preserveAspectRatio="xMidYMid meet" version="1.0"><defs><g/><clipPath id="b2b73f41b3"><path d="M 8.308594 5.183594 L 375.441406 5.183594 L 375.441406 244.195312 L 8.308594 244.195312 Z M 8.308594 5.183594 " clip-rule="nonzero"/></clipPath><clipPath id="a6aad175d5"><path d="M 288 5.183594 L 298 5.183594 L 298 244.195312 L 288 244.195312 Z M 288 5.183594 " clip-rule="nonzero"/></clipPath></defs><g clip-path="url(#b2b73f41b3)"><path fill="#000000" d="M 26.804688 5.171875 L 357.417969 5.171875 C 362.515625 5.171875 367.148438 7.414062 370.503906 11.03125 C 370.59375 11.125 370.675781 11.222656 370.753906 11.324219 C 373.960938 14.914062 375.941406 19.785156 375.941406 25.128906 L 375.941406 224.226562 C 375.941406 229.707031 373.859375 234.691406 370.503906 238.308594 L 367.457031 235.042969 L 370.503906 238.324219 L 370.425781 238.410156 C 367.078125 241.976562 362.476562 244.183594 357.417969 244.183594 L 26.804688 244.183594 C 21.707031 244.183594 17.074219 241.941406 13.71875 238.324219 C 13.632812 238.230469 13.546875 238.136719 13.472656 238.035156 C 10.261719 234.4375 8.28125 229.5625 8.28125 224.226562 L 8.28125 25.128906 C 8.28125 19.652344 10.367188 14.664062 13.726562 11.039062 L 13.71875 11.03125 L 13.71875 11.027344 L 13.800781 10.945312 C 17.144531 7.378906 21.746094 5.171875 26.804688 5.171875 Z M 357.417969 14.453125 L 26.804688 14.453125 C 24.097656 14.453125 21.636719 15.644531 19.839844 17.566406 L 19.8125 17.59375 L 16.765625 14.3125 L 19.796875 17.59375 C 18.007812 19.519531 16.898438 22.1875 16.898438 25.128906 L 16.898438 224.226562 C 16.898438 227.070312 17.933594 229.65625 19.617188 231.5625 C 19.683594 231.625 19.75 231.695312 19.8125 231.761719 C 21.609375 233.699219 24.085938 234.902344 26.804688 234.902344 L 357.417969 234.902344 C 360.125 234.902344 362.589844 233.710938 364.382812 231.792969 L 364.410156 231.761719 L 364.417969 231.769531 C 366.210938 229.835938 367.324219 227.164062 367.324219 224.226562 L 367.324219 25.128906 C 367.324219 22.292969 366.285156 19.703125 364.601562 17.785156 C 364.539062 17.726562 364.472656 17.660156 364.410156 17.59375 C 362.613281 15.65625 360.136719 14.453125 357.417969 14.453125 Z M 357.417969 14.453125 " fill-opacity="1" fill-rule="nonzero"/></g><g clip-path="url(#a6aad175d5)"><path fill="#000000" d="M 297.570312 9.8125 C 297.570312 7.25 295.640625 5.171875 293.261719 5.171875 C 290.882812 5.171875 288.953125 7.25 288.953125 9.8125 L 288.953125 239.542969 C 288.953125 242.105469 290.882812 244.183594 293.261719 244.183594 C 295.640625 244.183594 297.570312 242.105469 297.570312 239.542969 Z M 297.570312 9.8125 " fill-opacity="1" fill-rule="nonzero"/></g><path fill="#000000" d="M 43.324219 49.59375 L 263.410156 49.59375 C 265.789062 49.59375 267.71875 51.671875 267.71875 54.234375 L 267.71875 200.027344 C 267.71875 202.589844 265.789062 204.667969 263.410156 204.667969 L 43.324219 204.667969 C 40.945312 204.667969 39.015625 202.589844 39.015625 200.027344 L 39.015625 54.234375 C 39.015625 51.671875 40.945312 49.59375 43.324219 49.59375 Z M 259.101562 58.875 L 47.632812 58.875 L 47.632812 195.382812 L 259.101562 195.382812 Z M 259.101562 58.875 " fill-opacity="1" fill-rule="nonzero"/><path fill="#000000" d="M 81.375 130.34375 L 221.714844 130.34375 C 224.09375 130.34375 226.023438 132.421875 226.023438 134.984375 C 226.023438 154.152344 218.746094 171.578125 207.027344 184.203125 C 195.304688 196.828125 179.132812 204.667969 161.339844 204.667969 L 141.75 204.667969 C 123.957031 204.667969 107.785156 196.828125 96.0625 184.203125 C 84.34375 171.578125 77.066406 154.152344 77.066406 134.984375 C 77.066406 132.421875 78.996094 130.34375 81.375 130.34375 Z M 217.238281 139.625 L 85.847656 139.625 C 86.902344 154.394531 92.949219 167.71875 102.15625 177.640625 C 112.320312 188.589844 126.335938 195.386719 141.75 195.386719 L 161.339844 195.386719 C 176.753906 195.386719 190.769531 188.589844 200.933594 177.640625 C 210.140625 167.71875 216.183594 154.394531 217.238281 139.625 Z M 217.238281 139.625 " fill-opacity="1" fill-rule="nonzero"/><path fill="#000000" d="M 308.414062 207.128906 L 308.414062 207.035156 L 308.417969 206.996094 L 308.425781 206.792969 L 308.441406 206.601562 C 308.59375 202.058594 310.375 197.972656 313.171875 195.003906 C 316.0625 191.933594 320.042969 190.050781 324.421875 190.078125 L 324.421875 190.058594 L 324.425781 190.058594 L 324.457031 190.0625 L 324.457031 190.058594 L 324.515625 190.0625 L 324.546875 190.0625 L 324.742188 190.074219 L 324.777344 190.074219 L 324.796875 190.078125 L 324.886719 190.085938 L 324.914062 190.089844 C 329.132812 190.253906 332.925781 192.175781 335.679688 195.1875 C 338.535156 198.304688 340.285156 202.601562 340.253906 207.328125 C 340.222656 212.074219 338.410156 216.355469 335.511719 219.433594 C 332.621094 222.503906 328.640625 224.386719 324.257812 224.359375 L 324.257812 224.378906 L 324.171875 224.378906 L 324.132812 224.375 C 324.035156 224.375 323.941406 224.367188 323.847656 224.359375 L 323.769531 224.347656 C 319.550781 224.1875 315.757812 222.265625 313.003906 219.253906 C 310.152344 216.140625 308.402344 211.851562 308.429688 207.132812 L 308.414062 207.132812 Z M 317.03125 207.128906 L 317.03125 207.164062 L 317.015625 207.164062 C 317.003906 209.34375 317.8125 211.324219 319.128906 212.761719 C 320.382812 214.128906 322.089844 215.011719 323.980469 215.105469 L 324.03125 215.101562 L 324.039062 215.101562 L 324.125 215.097656 L 324.289062 215.097656 L 324.289062 215.113281 C 326.3125 215.125 328.148438 214.253906 329.488281 212.835938 C 330.820312 211.417969 331.65625 209.453125 331.667969 207.289062 C 331.683594 205.105469 330.875 203.121094 329.554688 201.675781 C 328.300781 200.308594 326.59375 199.429688 324.699219 199.335938 L 324.636719 199.335938 L 324.5625 199.339844 L 324.523438 199.339844 L 324.460938 199.34375 L 324.390625 199.34375 L 324.390625 199.324219 C 322.371094 199.3125 320.535156 200.1875 319.199219 201.605469 C 317.925781 202.953125 317.109375 204.792969 317.023438 206.832031 L 317.023438 206.859375 L 317.027344 206.902344 L 317.027344 206.972656 L 317.03125 207.023438 Z M 317.03125 207.128906 " fill-opacity="1" fill-rule="nonzero"/><path fill="#000000" d="M 308.777344 155.246094 C 308.808594 150.5 310.617188 146.21875 313.515625 143.140625 C 316.410156 140.066406 320.402344 138.179688 324.789062 138.214844 C 329.195312 138.246094 333.167969 140.199219 336.027344 143.320312 C 338.878906 146.441406 340.628906 150.738281 340.597656 155.464844 C 340.566406 160.210938 338.753906 164.492188 335.855469 167.570312 C 332.960938 170.644531 328.972656 172.53125 324.585938 172.496094 C 320.179688 172.460938 316.207031 170.511719 313.347656 167.386719 C 310.496094 164.269531 308.746094 159.972656 308.777344 155.246094 Z M 319.542969 149.738281 C 318.207031 151.15625 317.371094 153.121094 317.359375 155.28125 C 317.34375 157.464844 318.15625 159.453125 319.476562 160.898438 C 320.789062 162.335938 322.613281 163.234375 324.621094 163.25 C 326.648438 163.265625 328.492188 162.390625 329.832031 160.96875 C 331.167969 159.550781 332 157.589844 332.015625 155.425781 C 332.03125 153.242188 331.21875 151.253906 329.898438 149.8125 C 328.582031 148.375 326.761719 147.476562 324.753906 147.460938 C 322.726562 147.445312 320.882812 148.316406 319.542969 149.738281 Z M 319.542969 149.738281 " fill-opacity="1" fill-rule="nonzero"/><path fill="#000000" d="M 309.105469 103.402344 L 309.105469 103.308594 L 309.109375 103.265625 L 309.117188 103.066406 L 309.132812 102.875 C 309.285156 98.328125 311.066406 94.242188 313.863281 91.273438 C 316.753906 88.203125 320.734375 86.320312 325.113281 86.347656 L 325.113281 86.332031 L 325.238281 86.332031 L 325.433594 86.34375 L 325.46875 86.347656 L 325.488281 86.347656 L 325.578125 86.359375 L 325.605469 86.359375 C 329.824219 86.527344 333.613281 88.445312 336.371094 91.457031 C 339.222656 94.574219 340.96875 98.859375 340.945312 103.582031 L 340.960938 103.582031 L 340.960938 103.675781 L 340.957031 103.714844 C 340.957031 103.820312 340.949219 103.921875 340.941406 104.023438 L 340.933594 104.109375 C 340.78125 108.652344 339 112.738281 336.203125 115.707031 C 333.3125 118.777344 329.332031 120.664062 324.949219 120.632812 L 324.949219 120.652344 L 324.917969 120.648438 L 324.917969 120.652344 L 324.859375 120.648438 L 324.824219 120.648438 L 324.636719 120.640625 L 324.460938 120.621094 C 320.242188 120.457031 316.449219 118.535156 313.695312 115.523438 C 310.84375 112.410156 309.09375 108.125 309.121094 103.402344 Z M 317.722656 103.398438 L 317.722656 103.4375 L 317.703125 103.4375 C 317.695312 105.613281 318.503906 107.59375 319.820312 109.035156 C 321.074219 110.402344 322.78125 111.28125 324.675781 111.378906 L 324.695312 111.375 L 324.742188 111.375 L 324.804688 111.371094 L 324.851562 111.367188 L 324.984375 111.367188 L 324.984375 111.386719 C 327.003906 111.398438 328.84375 110.523438 330.175781 109.105469 C 331.449219 107.757812 332.265625 105.917969 332.351562 103.878906 L 332.351562 103.820312 L 332.347656 103.722656 L 332.34375 103.691406 L 332.34375 103.546875 L 332.359375 103.546875 C 332.371094 101.371094 331.5625 99.386719 330.246094 97.949219 C 328.992188 96.578125 327.28125 95.699219 325.390625 95.605469 L 325.355469 95.609375 L 325.328125 95.609375 L 325.253906 95.613281 L 325.082031 95.613281 L 325.082031 95.597656 C 323.0625 95.585938 321.222656 96.457031 319.886719 97.875 C 318.617188 99.226562 317.800781 101.066406 317.710938 103.105469 L 317.714844 103.128906 L 317.71875 103.175781 L 317.71875 103.296875 L 317.722656 103.363281 Z M 317.722656 103.398438 " fill-opacity="1" fill-rule="nonzero"/><path fill="#000000" d="M 309.46875 51.519531 C 309.5 46.773438 311.308594 42.488281 314.207031 39.410156 C 317.105469 36.335938 321.09375 34.453125 325.480469 34.484375 C 329.886719 34.519531 333.859375 36.46875 336.71875 39.59375 C 339.570312 42.710938 341.320312 47.007812 341.289062 51.734375 C 341.257812 56.484375 339.449219 60.761719 336.546875 63.84375 C 333.652344 66.917969 329.664062 68.800781 325.277344 68.769531 C 320.871094 68.734375 316.898438 66.785156 314.039062 63.660156 C 311.1875 60.542969 309.4375 56.246094 309.46875 51.519531 Z M 320.234375 46.011719 C 318.898438 47.429688 318.0625 49.390625 318.050781 51.554688 C 318.035156 53.738281 318.847656 55.726562 320.167969 57.167969 C 321.484375 58.605469 323.304688 59.507812 325.3125 59.523438 C 327.339844 59.535156 329.183594 58.664062 330.523438 57.242188 C 331.859375 55.824219 332.691406 53.863281 332.707031 51.699219 C 332.722656 49.515625 331.910156 47.527344 330.589844 46.085938 C 329.273438 44.644531 327.453125 43.746094 325.445312 43.730469 C 323.417969 43.714844 321.574219 44.589844 320.234375 46.011719 Z M 320.234375 46.011719 " fill-opacity="1" fill-rule="nonzero"/><path fill="#000000" d="M 127.523438 105.074219 C 129.019531 107.058594 131.726562 107.359375 133.5625 105.746094 C 135.402344 104.132812 135.683594 101.21875 134.1875 99.238281 C 133.5625 98.414062 133.078125 97.449219 132.765625 96.386719 C 132.472656 95.375 132.34375 94.289062 132.417969 93.175781 C 132.492188 92.058594 132.761719 91.007812 133.183594 90.066406 C 133.625 89.085938 134.238281 88.207031 134.984375 87.472656 C 136.730469 85.742188 136.84375 82.808594 135.234375 80.925781 C 133.628906 79.042969 130.90625 78.921875 129.160156 80.652344 C 127.636719 82.160156 126.367188 83.984375 125.445312 86.039062 C 124.554688 88.019531 123.992188 90.207031 123.835938 92.523438 C 123.679688 94.84375 123.941406 97.089844 124.554688 99.175781 C 125.183594 101.332031 126.199219 103.332031 127.523438 105.074219 Z M 127.523438 105.074219 " fill-opacity="1" fill-rule="nonzero"/><path fill="#000000" d="M 128.71875 117.320312 C 127.222656 119.300781 127.5 122.21875 129.339844 123.828125 C 131.179688 125.441406 133.886719 125.140625 135.382812 123.15625 C 136.703125 121.414062 137.722656 119.414062 138.351562 117.257812 C 138.964844 115.171875 139.222656 112.925781 139.070312 110.605469 C 138.914062 108.289062 138.355469 106.101562 137.46875 104.117188 C 136.558594 102.089844 135.292969 100.269531 133.75 98.746094 C 132 97.023438 129.289062 97.15625 127.691406 99.039062 C 126.09375 100.921875 126.210938 103.84375 127.960938 105.566406 C 128.679688 106.273438 129.28125 107.148438 129.726562 108.140625 C 130.144531 109.078125 130.410156 110.132812 130.484375 111.257812 C 130.5625 112.375 130.433594 113.457031 130.136719 114.46875 C 129.828125 115.53125 129.339844 116.496094 128.71875 117.320312 Z M 128.71875 117.320312 " fill-opacity="1" fill-rule="nonzero"/><path fill="#000000" d="M 148.566406 105.074219 C 150.0625 107.058594 152.769531 107.359375 154.609375 105.746094 C 156.449219 104.132812 156.726562 101.21875 155.230469 99.238281 C 154.609375 98.414062 154.121094 97.449219 153.8125 96.386719 C 153.515625 95.375 153.386719 94.289062 153.464844 93.175781 C 153.539062 92.054688 153.808594 91.003906 154.230469 90.0625 C 154.679688 89.066406 155.289062 88.1875 156.011719 87.472656 C 157.757812 85.75 157.878906 82.828125 156.28125 80.945312 C 154.683594 79.0625 151.96875 78.933594 150.222656 80.652344 C 148.675781 82.175781 147.402344 84.003906 146.488281 86.039062 C 145.597656 88.019531 145.035156 90.207031 144.878906 92.523438 C 144.726562 94.84375 144.984375 97.089844 145.597656 99.175781 C 146.230469 101.332031 147.246094 103.332031 148.566406 105.074219 Z M 148.566406 105.074219 " fill-opacity="1" fill-rule="nonzero"/><path fill="#000000" d="M 149.761719 117.320312 C 148.265625 119.300781 148.546875 122.21875 150.386719 123.828125 C 152.226562 125.441406 154.929688 125.140625 156.425781 123.15625 C 157.75 121.414062 158.765625 119.414062 159.398438 117.257812 C 160.007812 115.175781 160.269531 112.925781 160.113281 110.605469 C 159.957031 108.289062 159.398438 106.101562 158.511719 104.117188 C 157.605469 102.089844 156.335938 100.269531 154.792969 98.746094 C 153.046875 97.023438 150.332031 97.15625 148.734375 99.039062 C 147.136719 100.921875 147.257812 103.84375 149.003906 105.566406 C 149.722656 106.273438 150.324219 107.148438 150.769531 108.140625 C 151.1875 109.078125 151.457031 110.132812 151.53125 111.257812 C 151.605469 112.371094 151.476562 113.460938 151.183594 114.46875 C 150.871094 115.53125 150.386719 116.496094 149.761719 117.320312 Z M 149.761719 117.320312 " fill-opacity="1" fill-rule="nonzero"/><path fill="#000000" d="M 167.707031 105.074219 C 169.203125 107.058594 171.910156 107.359375 173.75 105.746094 C 175.585938 104.132812 175.867188 101.21875 174.371094 99.238281 C 173.75 98.414062 173.261719 97.449219 172.949219 96.386719 C 172.65625 95.375 172.527344 94.289062 172.601562 93.175781 C 172.675781 92.058594 172.945312 91.007812 173.367188 90.066406 C 173.808594 89.085938 174.421875 88.207031 175.167969 87.472656 C 176.914062 85.742188 177.027344 82.808594 175.417969 80.925781 C 173.8125 79.042969 171.089844 78.921875 169.34375 80.652344 C 167.820312 82.160156 166.550781 83.984375 165.628906 86.039062 C 164.738281 88.019531 164.175781 90.207031 164.019531 92.523438 C 163.863281 94.84375 164.125 97.089844 164.738281 99.175781 C 165.367188 101.332031 166.382812 103.332031 167.707031 105.074219 Z M 167.707031 105.074219 " fill-opacity="1" fill-rule="nonzero"/><path fill="#000000" d="M 168.902344 117.320312 C 167.40625 119.300781 167.683594 122.21875 169.523438 123.828125 C 171.363281 125.441406 174.070312 125.140625 175.566406 123.15625 C 176.886719 121.414062 177.90625 119.414062 178.535156 117.257812 C 179.148438 115.171875 179.410156 112.925781 179.253906 110.605469 C 179.097656 108.289062 178.539062 106.101562 177.652344 104.117188 C 176.746094 102.089844 175.476562 100.269531 173.933594 98.746094 C 172.1875 97.023438 169.472656 97.15625 167.875 99.039062 C 166.277344 100.921875 166.394531 103.84375 168.144531 105.566406 C 168.863281 106.273438 169.464844 107.148438 169.910156 108.140625 C 170.328125 109.078125 170.59375 110.132812 170.671875 111.257812 C 170.746094 112.375 170.617188 113.457031 170.324219 114.46875 C 170.011719 115.53125 169.523438 116.496094 168.902344 117.320312 Z M 168.902344 117.320312 " fill-opacity="1" fill-rule="nonzero"/><g fill="#ffffff" fill-opacity="1"><g transform="translate(191.999992, 77.408284)"><g><path d="M 0.9375 0 L 0.9375 -7.53125 L 1.734375 -7.53125 L 1.734375 -4.609375 L 1.828125 -4.59375 C 2.210938 -5.1875 2.769531 -5.484375 3.5 -5.484375 C 4.144531 -5.484375 4.613281 -5.316406 4.90625 -4.984375 C 5.195312 -4.648438 5.34375 -4.144531 5.34375 -3.46875 L 5.34375 0 L 4.546875 0 L 4.546875 -3.4375 C 4.546875 -3.757812 4.503906 -4.019531 4.421875 -4.21875 C 4.335938 -4.414062 4.207031 -4.554688 4.03125 -4.640625 C 3.851562 -4.734375 3.625 -4.78125 3.34375 -4.78125 C 2.863281 -4.78125 2.472656 -4.625 2.171875 -4.3125 C 1.878906 -4 1.734375 -3.484375 1.734375 -2.765625 L 1.734375 0 Z M 0.9375 0 "/></g></g></g><g fill="#ffffff" fill-opacity="1"><g transform="translate(198.192542, 77.408284)"><g><path d="M 0.9375 0 L 0.9375 -7.53125 L 1.734375 -7.53125 L 1.734375 -4.609375 L 1.828125 -4.59375 C 2.210938 -5.1875 2.769531 -5.484375 3.5 -5.484375 C 4.144531 -5.484375 4.613281 -5.316406 4.90625 -4.984375 C 5.195312 -4.648438 5.34375 -4.144531 5.34375 -3.46875 L 5.34375 0 L 4.546875 0 L 4.546875 -3.4375 C 4.546875 -3.757812 4.503906 -4.019531 4.421875 -4.21875 C 4.335938 -4.414062 4.207031 -4.554688 4.03125 -4.640625 C 3.851562 -4.734375 3.625 -4.78125 3.34375 -4.78125 C 2.863281 -4.78125 2.472656 -4.625 2.171875 -4.3125 C 1.878906 -4 1.734375 -3.484375 1.734375 -2.765625 L 1.734375 0 Z M 0.9375 0 "/></g></g></g><g fill="#ffffff" fill-opacity="1"><g transform="translate(204.385092, 77.408284)"><g><path d="M 0.9375 0 L 0.9375 -7.53125 L 1.734375 -7.53125 L 1.734375 -4.609375 L 1.828125 -4.59375 C 2.210938 -5.1875 2.769531 -5.484375 3.5 -5.484375 C 4.144531 -5.484375 4.613281 -5.316406 4.90625 -4.984375 C 5.195312 -4.648438 5.34375 -4.144531 5.34375 -3.46875 L 5.34375 0 L 4.546875 0 L 4.546875 -3.4375 C 4.546875 -3.757812 4.503906 -4.019531 4.421875 -4.21875 C 4.335938 -4.414062 4.207031 -4.554688 4.03125 -4.640625 C 3.851562 -4.734375 3.625 -4.78125 3.34375 -4.78125 C 2.863281 -4.78125 2.472656 -4.625 2.171875 -4.3125 C 1.878906 -4 1.734375 -3.484375 1.734375 -2.765625 L 1.734375 0 Z M 0.9375 0 "/></g></g></g><g fill="#ffffff" fill-opacity="1"><g transform="translate(210.577642, 77.408284)"><g><path d="M 0.9375 0 L 0.9375 -7.53125 L 1.734375 -7.53125 L 1.734375 -4.609375 L 1.828125 -4.59375 C 2.210938 -5.1875 2.769531 -5.484375 3.5 -5.484375 C 4.144531 -5.484375 4.613281 -5.316406 4.90625 -4.984375 C 5.195312 -4.648438 5.34375 -4.144531 5.34375 -3.46875 L 5.34375 0 L 4.546875 0 L 4.546875 -3.4375 C 4.546875 -3.757812 4.503906 -4.019531 4.421875 -4.21875 C 4.335938 -4.414062 4.207031 -4.554688 4.03125 -4.640625 C 3.851562 -4.734375 3.625 -4.78125 3.34375 -4.78125 C 2.863281 -4.78125 2.472656 -4.625 2.171875 -4.3125 C 1.878906 -4 1.734375 -3.484375 1.734375 -2.765625 L 1.734375 0 Z M 0.9375 0 "/></g></g></g><g fill="#ffffff" fill-opacity="1"><g transform="translate(216.770193, 77.408284)"><g><path d="M 0.9375 0 L 0.9375 -7.53125 L 1.734375 -7.53125 L 1.734375 -4.609375 L 1.828125 -4.59375 C 2.210938 -5.1875 2.769531 -5.484375 3.5 -5.484375 C 4.144531 -5.484375 4.613281 -5.316406 4.90625 -4.984375 C 5.195312 -4.648438 5.34375 -4.144531 5.34375 -3.46875 L 5.34375 0 L 4.546875 0 L 4.546875 -3.4375 C 4.546875 -3.757812 4.503906 -4.019531 4.421875 -4.21875 C 4.335938 -4.414062 4.207031 -4.554688 4.03125 -4.640625 C 3.851562 -4.734375 3.625 -4.78125 3.34375 -4.78125 C 2.863281 -4.78125 2.472656 -4.625 2.171875 -4.3125 C 1.878906 -4 1.734375 -3.484375 1.734375 -2.765625 L 1.734375 0 Z M 0.9375 0 "/></g></g></g><g fill="#ffffff" fill-opacity="1"><g transform="translate(222.962743, 77.408284)"><g><path d="M 0.9375 0 L 0.9375 -7.53125 L 1.734375 -7.53125 L 1.734375 -4.609375 L 1.828125 -4.59375 C 2.210938 -5.1875 2.769531 -5.484375 3.5 -5.484375 C 4.144531 -5.484375 4.613281 -5.316406 4.90625 -4.984375 C 5.195312 -4.648438 5.34375 -4.144531 5.34375 -3.46875 L 5.34375 0 L 4.546875 0 L 4.546875 -3.4375 C 4.546875 -3.757812 4.503906 -4.019531 4.421875 -4.21875 C 4.335938 -4.414062 4.207031 -4.554688 4.03125 -4.640625 C 3.851562 -4.734375 3.625 -4.78125 3.34375 -4.78125 C 2.863281 -4.78125 2.472656 -4.625 2.171875 -4.3125 C 1.878906 -4 1.734375 -3.484375 1.734375 -2.765625 L 1.734375 0 Z M 0.9375 0 "/></g></g></g><g fill="#ffffff" fill-opacity="1"><g transform="translate(229.155293, 77.408284)"><g><path d="M 0.9375 0 L 0.9375 -7.53125 L 1.734375 -7.53125 L 1.734375 -4.609375 L 1.828125 -4.59375 C 2.210938 -5.1875 2.769531 -5.484375 3.5 -5.484375 C 4.144531 -5.484375 4.613281 -5.316406 4.90625 -4.984375 C 5.195312 -4.648438 5.34375 -4.144531 5.34375 -3.46875 L 5.34375 0 L 4.546875 0 L 4.546875 -3.4375 C 4.546875 -3.757812 4.503906 -4.019531 4.421875 -4.21875 C 4.335938 -4.414062 4.207031 -4.554688 4.03125 -4.640625 C 3.851562 -4.734375 3.625 -4.78125 3.34375 -4.78125 C 2.863281 -4.78125 2.472656 -4.625 2.171875 -4.3125 C 1.878906 -4 1.734375 -3.484375 1.734375 -2.765625 L 1.734375 0 Z M 0.9375 0 "/></g></g></g><g fill="#ffffff" fill-opacity="1"><g transform="translate(235.347843, 77.408284)"><g><path d="M 0.9375 0 L 0.9375 -7.53125 L 1.734375 -7.53125 L 1.734375 -4.609375 L 1.828125 -4.59375 C 2.210938 -5.1875 2.769531 -5.484375 3.5 -5.484375 C 4.144531 -5.484375 4.613281 -5.316406 4.90625 -4.984375 C 5.195312 -4.648438 5.34375 -4.144531 5.34375 -3.46875 L 5.34375 0 L 4.546875 0 L 4.546875 -3.4375 C 4.546875 -3.757812 4.503906 -4.019531 4.421875 -4.21875 C 4.335938 -4.414062 4.207031 -4.554688 4.03125 -4.640625 C 3.851562 -4.734375 3.625 -4.78125 3.34375 -4.78125 C 2.863281 -4.78125 2.472656 -4.625 2.171875 -4.3125 C 1.878906 -4 1.734375 -3.484375 1.734375 -2.765625 L 1.734375 0 Z M 0.9375 0 "/></g></g></g></svg>